<svg width="230" height="515" fill="none" xmlns="http://www.w3.org/2000/svg">
    <path d="M-56.498 101.302l-127.236 127.4c-15.611 15.631-15.611 40.973 0 56.604l127.236 127.4c15.61 15.631 40.92 15.631 56.532 0l127.236-127.4c15.611-15.631 15.611-40.973 0-56.604L.034 101.302c-15.611-15.63-40.921-15.63-56.532 0z" fill="#1C202A"/>
    <path d="M-98.975 70.597L-215.177 186.43c-39.115 38.989-39.115 102.204 0 141.194l116.202 115.833c39.115 38.989 102.531 38.989 141.646 0l116.202-115.833c39.115-38.99 39.115-102.205 0-141.194L42.671 70.597c-39.115-38.99-102.531-38.99-141.646 0z" stroke="url(#paint0_linear)" stroke-miterlimit="10"/>
    <defs>
        <linearGradient id="paint0_linear" x1="-211.555" y1="439.846" x2="154.057" y2="73.065" gradientUnits="userSpaceOnUse">
            <stop stop-color="#7231CF"/>
            <stop offset="1" stop-color="#EE3DC6"/>
        </linearGradient>
    </defs>
</svg>
