<svg width="36" height="45" xmlns="http://www.w3.org/2000/svg">
    <g fill="#FFF" fill-rule="nonzero">
        <path d="M25.923 23.282a10.893 10.893 0 01-3.006 2.004l-3.243 4.878 2.056 2.057 5.274-7.91-1.081-1.029zM26.336 5.3a9.236 9.236 0 01-8.332 5.247H8.775v3.955c0 4.104 2.696 7.465 6.038 8.648h.027c1.905.753 4.422.753 6.328 0h.026c2.644-.792 6.038-4.19 6.038-8.648V9.228a8.95 8.95 0 00-.896-3.928z"/>
        <path d="M17.986 0c-4.64 0-8.49 3.454-9.123 7.91h9.123a6.6 6.6 0 006.46-5.247A9.109 9.109 0 0017.986 0zM14.952 35.2c-.535.595-1.498.525-2.03-.184l-6.25-9.36-3.532 1.027c-2.136.712-3.402 2.98-2.848 5.09l2.32 12.172A1.349 1.349 0 003.904 45c.053 0 .106 0 .158-.026.027.026.027.026.053.026h12.55V33.513L14.953 35.2zM32.796 26.657l-3.48-1.002-6.25 9.36c-.559.746-1.533.738-2.03.185l-1.714-1.687V45h12.735c.633 0 1.16-.448 1.293-1.055l2.32-12.094c.553-2.188-.686-4.456-2.874-5.194zM28.55 39.551h-2.637c-1.747 0-1.747-2.637 0-2.637h2.637c1.746 0 1.746 2.637 0 2.637z"/>
        <path d="M13.09 25.286c-1.107-.5-2.109-1.16-3.005-1.977L9.03 24.337l5.247 7.884 2.057-2.057-3.243-4.878zM19.032 26.314a14.05 14.05 0 01-1.055.053c-.342 0-.712-.026-1.054-.053h-.027l1.081 1.635 1.081-1.635h-.026z"/>
    </g>
</svg>
