<svg width="46" height="40" xmlns="http://www.w3.org/2000/svg">
    <g fill="#FFF" fill-rule="nonzero">
        <path d="M28.843.227H4.936A3.95 3.95 0 00.981 4.182v15.82a3.95 3.95 0 003.955 3.955h1.319v3.955c0 .953.986 1.642 1.951 1.16.026-.026.08-.026.106-.053 7.252-4.863 5.627-3.779 7.25-4.851.211-.132.449-.211.712-.211h12.569a3.95 3.95 0 003.955-3.955V4.182A3.95 3.95 0 0028.843.227zm-10.547 15.82H7.573c-1.738 0-1.745-2.637 0-2.637h10.723c1.738 0 1.745 2.637 0 2.637zm7.91-5.274H7.573c-1.738 0-1.745-2.636 0-2.636h18.633c1.738 0 1.745 2.636 0 2.636z"/>
        <path d="M42.026 10.773h-6.591v9.229a6.594 6.594 0 01-6.592 6.592H16.67l-2.505 1.66v2.295a3.95 3.95 0 003.955 3.955h12.964l7.567 5.062c1.033.574 2.057-.124 2.057-1.107v-3.955h1.318a3.95 3.95 0 003.955-3.955v-15.82a3.95 3.95 0 00-3.955-3.956z"/>
    </g>
</svg>
