<svg width="45" height="46" xmlns="http://www.w3.org/2000/svg">
    <g fill="#FFF" fill-rule="nonzero">
        <path d="M34.235 7.883a3.93 3.93 0 00-1.16-2.796L29.348 1.36A4.043 4.043 0 0026.525.2H26.3v7.91h7.936v-.226z"/>
        <path d="M24.076 27.405a5.293 5.293 0 011.267-2.057l8.927-8.89v-5.711h-9.264c-.729 0-1.276-.59-1.276-1.319V.2H3.956A3.96 3.96 0 000 4.155v37.09A3.96 3.96 0 003.955 45.2H30.28c2.181 0 3.99-1.774 3.99-3.955v-9.84l-1.448 1.414a5.243 5.243 0 01-2.05 1.264l-4.192 1.4-.638.035a3.309 3.309 0 01-2.676-1.374 3.306 3.306 0 01-.448-2.969l1.26-3.77zM6.592 23.93h13.14a1.318 1.318 0 110 2.637H6.593a1.318 1.318 0 110-2.637zm-1.319-3.955c0-.728.59-1.318 1.319-1.318h13.14a1.318 1.318 0 110 2.637H6.593c-.729 0-1.319-.59-1.319-1.319zm0 10.547c0-.728.59-1.318 1.319-1.318h13.14a1.318 1.318 0 110 2.637H6.593c-.729 0-1.319-.59-1.319-1.319zm19.733 6.592a1.318 1.318 0 110 2.637h-7.91a1.318 1.318 0 110-2.637h7.91zM6.592 16.02a1.318 1.318 0 110-2.636h18.414a1.318 1.318 0 110 2.636H6.592z"/>
        <path d="M26.465 28.572l-1.147 3.44a.659.659 0 00.834.834l3.439-1.148-3.126-3.126zM36.704 17.717L28.02 26.4l3.745 3.744 8.682-8.683-3.744-3.744zM44.225 13.936c-.463-.466-1.146-.733-1.87-.733-.723 0-1.405.267-1.871.734l-1.916 1.916 3.744 3.744 1.916-1.916a2.654 2.654 0 00-.003-3.745zM44.228 17.684l.01-.01-.01.01zM44.238 17.676zM44.247 17.663c.01-.01.011-.01 0 0z"/>
    </g>
</svg>
